<svg width="400" height="400" viewBox="0 0 400 400" fill="none" xmlns="http://www.w3.org/2000/svg">
    <rect x="266.571" width="38.0952" height="38.0952" fill="#9BE61A"/>
    <rect x="247.524" y="19.0476" width="38.0952" height="38.0952" fill="#9BE61A"/>
    <rect x="228.476" y="38.0952" width="38.0952" height="38.0952" fill="#9BE61A"/>
    <rect x="209.429" y="57.1429" width="19.0476" height="38.0952" fill="#9BE61A"/>
    <rect x="228.476" y="95.2381" width="96.5079" height="38.0952" fill="#9BE421"/>
    <rect x="95.1429" y="95.2381" width="95.2381" height="38.0952" fill="#9BE421"/>
    <rect x="76.0952" y="114.286" width="266.667" height="19.0476" fill="#9BE421"/>
    <rect x="57.0476" y="133.333" width="304.762" height="19.0476" fill="#F3C800"/>
    <rect x="38" y="152.381" width="286.984" height="19.0476" fill="#F3C800"/>
    <rect x="38" y="171.429" width="266.667" height="19.0476" fill="#F3C800"/>
    <rect x="57.0476" y="304.762" width="304.762" height="19.0476" fill="#A143BB"/>
    <rect x="95.1429" y="361.905" width="229.841" height="19.0476" fill="#0097E0"/>
    <rect x="112.921" y="380.952" width="77.4603" height="19.0476" fill="#0097E0"/>
    <rect x="228.476" y="380.952" width="76.1905" height="19.0476" fill="#0097E0"/>
    <rect x="76.0952" y="323.81" width="266.667" height="38.0952" fill="#A143BB"/>
    <rect x="38" y="190.476" width="266.667" height="58.4127" fill="#F07800"/>
    <rect x="57.0476" y="285.714" width="304.762" height="19.0476" fill="#F6232A"/>
    <rect x="304.667" y="266.667" width="20.3175" height="19.0476" fill="#F6232A"/>
    <rect x="38" y="248.889" width="266.667" height="36.8254" fill="#F6232A"/>
</svg>
